<?xml version="1.0" encoding="UTF-8" standalone="no"?>
<!-- Created with Inkscape (http://www.inkscape.org/) -->

<svg
   xmlns:ns0="http://www.iki.fi/pav/software/textext/"
   xmlns:dc="http://purl.org/dc/elements/1.1/"
   xmlns:cc="http://creativecommons.org/ns#"
   xmlns:rdf="http://www.w3.org/1999/02/22-rdf-syntax-ns#"
   xmlns:svg="http://www.w3.org/2000/svg"
   xmlns="http://www.w3.org/2000/svg"
   xmlns:xlink="http://www.w3.org/1999/xlink"
   xmlns:sodipodi="http://sodipodi.sourceforge.net/DTD/sodipodi-0.dtd"
   xmlns:inkscape="http://www.inkscape.org/namespaces/inkscape"
   width="744.09448819"
   height="1052.3622047"
   id="svg2"
   version="1.1"
   inkscape:version="0.91 r13725"
   sodipodi:docname="coordinate_system.svg">
  <sodipodi:namedview
     id="base"
     pagecolor="#ffffff"
     bordercolor="#666666"
     borderopacity="1.0"
     inkscape:pageopacity="0.0"
     inkscape:pageshadow="2"
     inkscape:zoom="0.7"
     inkscape:cx="132.22028"
     inkscape:cy="463.79989"
     inkscape:document-units="px"
     inkscape:current-layer="layer1"
     showgrid="false"
     inkscape:window-width="1480"
     inkscape:window-height="1028"
     inkscape:window-x="0"
     inkscape:window-y="24"
     inkscape:window-maximized="0" />
  <defs
     id="defs4">
    <marker
       inkscape:stockid="Arrow1Mend"
       orient="auto"
       refY="0.0"
       refX="0.0"
       id="Arrow1Mend"
       style="overflow:visible;"
       inkscape:isstock="true">
      <path
         id="path4194"
         d="M 0.0,0.0 L 5.0,-5.0 L -12.5,0.0 L 5.0,5.0 L 0.0,0.0 z "
         style="fill-rule:evenodd;stroke:#000000;stroke-width:1pt;stroke-opacity:1;fill:#000000;fill-opacity:1"
         transform="scale(0.4) rotate(180) translate(10,0)" />
    </marker>
    <marker
       inkscape:stockid="Arrow1Lend"
       orient="auto"
       refY="0.0"
       refX="0.0"
       id="Arrow1Lend"
       style="overflow:visible;">
      <path
         id="path3796"
         d="M 0.0,0.0 L 5.0,-5.0 L -12.5,0.0 L 5.0,5.0 L 0.0,0.0 z "
         style="fill-rule:evenodd;stroke:#000000;stroke-width:1.0pt;"
         transform="scale(0.8) rotate(180) translate(12.5,0)" />
    </marker>
    <marker
       inkscape:stockid="Arrow1Lend"
       orient="auto"
       refY="0"
       refX="0"
       id="Arrow1Lend-6"
       style="overflow:visible">
      <path
         inkscape:connector-curvature="0"
         id="path3796-0"
         d="M 0,0 5,-5 -12.5,0 5,5 0,0 z"
         style="fill-rule:evenodd;stroke:#000000;stroke-width:1pt"
         transform="matrix(-0.8,0,0,-0.8,-10,0)" />
    </marker>
  </defs>
  <metadata
     id="metadata7">
    <rdf:RDF>
      <cc:Work
         rdf:about="">
        <dc:format>image/svg+xml</dc:format>
        <dc:type
           rdf:resource="http://purl.org/dc/dcmitype/StillImage" />
        <dc:title></dc:title>
      </cc:Work>
    </rdf:RDF>
  </metadata>
  <g
     inkscape:label="Layer 1"
     inkscape:groupmode="layer"
     id="layer1">
    <path
       sodipodi:type="arc"
       style="fill:#000000;fill-rule:evenodd;stroke:#000000;stroke-width:0.2;stroke-linecap:butt;stroke-linejoin:miter;stroke-opacity:1;fill-opacity:0.19607843;stroke-miterlimit:4;stroke-dasharray:none;"
       id="path2985"
       sodipodi:cx="356.42856"
       sodipodi:cy="153.79076"
       sodipodi:rx="189.28572"
       sodipodi:ry="24.285715"
       d="m 545.71428,153.79076 a 189.28572,24.285715 0 1 1 -378.57144,0 189.28572,24.285715 0 1 1 378.57144,0 z" />
    <path
       transform="translate(-3.7189244e-7,600)"
       sodipodi:type="arc"
       style="fill:#000000;fill-opacity:0.19607843;fill-rule:evenodd;stroke:#000000;stroke-width:0.2;stroke-linecap:butt;stroke-linejoin:miter;stroke-miterlimit:4;stroke-opacity:1;stroke-dasharray:none;"
       id="path2985-7"
       sodipodi:cx="356.42856"
       sodipodi:cy="153.79076"
       sodipodi:rx="189.28572"
       sodipodi:ry="24.285715"
       d="m 545.71428,153.79076 a 189.28572,24.285715 0 1 1 -378.57144,0 189.28572,24.285715 0 1 1 378.57144,0 z" />
    <path
       style="fill:none;stroke:#000000;stroke-width:1px;stroke-linecap:butt;stroke-linejoin:miter;stroke-opacity:1;marker-end:url(#Arrow1Lend)"
       d="m 369.14286,447.21933 0,-145.71429"
       id="path3787"
       inkscape:connector-curvature="0" />
    <path
       style="fill:none;stroke:#000000;stroke-width:1px;stroke-linecap:butt;stroke-linejoin:miter;stroke-opacity:1;marker-end:url(#Arrow1Lend)"
       d="m 369.85714,447.07647 -50,22.14285"
       id="path15031"
       inkscape:connector-curvature="0" />
    <use
       x="0"
       y="0"
       xlink:href="#path3787"
       id="use15215"
       width="744.09448"
       height="1052.3622"
       transform="matrix(0,1,-1,0,816.38451,78.09879)"
       inkscape:transform-center-x="-72.879465" />
    <text
       xml:space="preserve"
       style="font-size:40px;font-style:normal;font-weight:normal;line-height:125%;letter-spacing:0px;word-spacing:0px;fill:#000000;fill-opacity:1;stroke:none;font-family:Sans"
       x="378.24039"
       y="315.43796"
       id="text15217"
       sodipodi:linespacing="125%"><tspan
         sodipodi:role="line"
         id="tspan15219"
         x="378.24039"
         y="315.43796">z</tspan></text>
    <use
       style="display:inline"
       x="0"
       y="0"
       xlink:href="#path16894-7-2-9-1"
       id="use15449"
       transform="translate(1210,3160.63)"
       width="2979.9211"
       height="4212.9922" />
    <use
       style="display:inline"
       x="0"
       y="0"
       xlink:href="#path16894-7-2-9-1"
       id="use15449-5"
       transform="translate(1210,3160.63)"
       width="2979.9211"
       height="4212.9922" />
    <use
       style="display:inline"
       x="0"
       y="0"
       xlink:href="#path16894-7-2-9-1"
       id="use15449-3"
       transform="translate(1210,3160.63)"
       width="2979.9211"
       height="4212.9922" />
    <use
       style="display:inline"
       x="0"
       y="0"
       xlink:href="#path16894-7-2-9-1"
       id="use15449-56"
       transform="translate(1210,3160.63)"
       width="2979.9211"
       height="4212.9922" />
    <use
       style="display:inline"
       x="0"
       y="0"
       xlink:href="#path16894-7-2-9-1"
       id="use15449-2"
       transform="translate(2187.3493,3276.0393)"
       width="2979.9211"
       height="4212.9922" />
    <use
       style="display:inline"
       x="0"
       y="0"
       xlink:href="#path16894-7-2-9-1"
       id="use15449-2-9"
       transform="translate(2187.3493,3276.0393)"
       width="2979.9211"
       height="4212.9922" />
    <use
       style="display:inline"
       x="0"
       y="0"
       xlink:href="#path16894-7-2-9-1"
       id="use15449-2-1"
       transform="translate(2187.3493,3276.0393)"
       width="2979.9211"
       height="4212.9922" />
    <use
       style="display:inline"
       x="0"
       y="0"
       xlink:href="#path16894-7-2-9-1"
       id="use15449-2-2"
       transform="translate(2187.3493,3276.0393)"
       width="2979.9211"
       height="4212.9922" />
    <text
       xml:space="preserve"
       style="font-size:40px;font-style:normal;font-weight:normal;line-height:125%;letter-spacing:0px;word-spacing:0px;fill:#000000;fill-opacity:1;stroke:none;font-family:Sans"
       x="490.57141"
       y="487.79074"
       id="text15328"
       sodipodi:linespacing="125%"><tspan
         sodipodi:role="line"
         id="tspan15330"
         x="490.57141"
         y="487.79074">y</tspan></text>
    <text
       xml:space="preserve"
       style="font-style:normal;font-weight:normal;font-size:40px;line-height:125%;font-family:Sans;letter-spacing:0px;word-spacing:0px;fill:#000000;fill-opacity:1;stroke:none"
       x="286.09753"
       y="481.86652"
       id="text15217-7"
       sodipodi:linespacing="125%"><tspan
         sodipodi:role="line"
         id="tspan15219-0"
         x="286.09753"
         y="481.86652">x</tspan></text>
    <text
       xml:space="preserve"
       style="font-size:40px;font-style:normal;font-weight:normal;line-height:125%;letter-spacing:0px;word-spacing:0px;fill:#000000;fill-opacity:1;stroke:none;font-family:Sans"
       x="41.428558"
       y="170.07648"
       id="text15353"
       sodipodi:linespacing="125%"><tspan
         sodipodi:role="line"
         id="tspan15355"
         x="41.428558"
         y="170.07648">det 1</tspan></text>
    <text
       xml:space="preserve"
       style="font-size:40px;font-style:normal;font-weight:normal;line-height:125%;letter-spacing:0px;word-spacing:0px;fill:#000000;fill-opacity:1;stroke:none;font-family:Sans"
       x="41.428558"
       y="770.07648"
       id="text15353-9"
       sodipodi:linespacing="125%"><tspan
         sodipodi:role="line"
         id="tspan15355-3"
         x="41.428558"
         y="770.07648">det 2</tspan></text>
    <path
       style="fill:none;stroke:#646464;stroke-width:4.26060009;stroke-linecap:butt;stroke-linejoin:miter;stroke-miterlimit:4;stroke-opacity:1;stroke-dasharray:none;marker-end:none;display:inline"
       d="m 52.93215,448.61717 c 11.0754,0.3245 8.0794,-10.3572 15.3192,-10.1075 7.24,0.2498 6.6319,14.1247 11.7683,14.1645 5.1365,0.037 5.0078,-13.6702 10.4235,-14.2001 5.4156,-0.5298 6.0523,14.4664 12.1045,14.4664 6.0524,0 6.2214,-14.5586 11.0969,-14.2225 4.8753,0.336 5.0427,14.122 10.4225,13.9539 5.3798,-0.1683 5.7159,-14.1698 11.6002,-14.3381 5.8842,-0.1682 6.7248,10.9279 13.1134,9.583 4.7962,-1.0098 3.593,-1.2057 3.593,-1.2057 l -0.589,-2.784 11.2934,3.1503 -11.1746,4.9335 0.5891,-5.0621 5.1765,-0.8223"
       id="path16894"
       inkscape:connector-curvature="0"
       sodipodi:nodetypes="czzzczczscccccc" />
    <text
       xml:space="preserve"
       style="font-size:49.73027802px;line-height:125%;letter-spacing:0px;word-spacing:0px;color:#000000;fill:#000000;fill-opacity:1;fill-rule:nonzero;stroke:none;stroke-width:1px;marker:none;visibility:visible;display:inline;overflow:visible;enable-background:new"
       x="81.211029"
       y="424.79425"
       id="text17932-2"
       sodipodi:linespacing="125%"><tspan
         sodipodi:role="line"
         id="tspan17934-6"
         x="81.211029"
         y="424.79425"
         style="font-size:41.44189835px">hν</tspan></text>
    <path
       style="fill:none;fill-rule:evenodd;stroke:#000000;stroke-width:1;stroke-linecap:butt;stroke-linejoin:miter;stroke-opacity:1;stroke-miterlimit:4;stroke-dasharray:1,2;stroke-dashoffset:0"
       d="m 368.57143,447.36218 65.46725,17.5419"
       id="path4179"
       inkscape:connector-curvature="0" />
    <path
       style="fill:none;fill-rule:evenodd;stroke:#000000;stroke-width:1;stroke-linecap:butt;stroke-linejoin:miter;stroke-opacity:1;stroke-miterlimit:4;stroke-dasharray:1,1;stroke-dashoffset:0"
       d="m 350.71429,455.3979 c 16.22412,4.34724 41.96428,-0.71429 41.96428,-0.71429"
       id="path4473"
       inkscape:connector-curvature="0" />
    <g
       style="font-style:normal;font-variant:normal;font-weight:normal;font-stretch:normal;letter-spacing:normal;word-spacing:normal;text-anchor:start;fill:none;fill-opacity:1;fill-rule:evenodd;stroke:#000000;stroke-linecap:butt;stroke-linejoin:miter;stroke-miterlimit:10.43299961;stroke-dasharray:none;stroke-dashoffset:0;stroke-opacity:1"
       id="content"
       transform="matrix(5,0,0,-5,-755.71428,4031.4286)"
       xml:space="preserve"
       stroke-miterlimit="10.433"
       font-style="normal"
       font-variant="normal"
       font-weight="normal"
       font-stretch="normal"
       font-size-adjust="none"
       letter-spacing="normal"
       word-spacing="normal"
       ns0:text="$\\theta$"
       ns0:preamble=""><path
         style="fill:#000000;stroke-width:0"
         inkscape:connector-curvature="0"
         d="m 227.96,712.1 0,0.07 0,0.07 0,0.07 0,0.07 -0.01,0.08 -0.01,0.08 -0.01,0.08 -0.01,0.08 -0.01,0.08 -0.02,0.09 -0.02,0.08 -0.02,0.09 -0.02,0.08 -0.02,0.09 -0.03,0.08 -0.03,0.08 -0.04,0.08 -0.03,0.08 -0.04,0.07 -0.05,0.07 -0.04,0.07 -0.05,0.06 -0.06,0.06 -0.05,0.06 -0.07,0.05 -0.03,0.02 -0.03,0.02 -0.04,0.02 -0.03,0.02 -0.04,0.02 -0.04,0.02 -0.04,0.01 -0.04,0.01 -0.04,0.01 -0.04,0.01 -0.04,0.01 -0.05,0 -0.04,0 -0.05,0.01 -0.01,-0.22 c 0.49,0 0.55,-0.64 0.55,-1.21 0,-0.49 -0.08,-1 -0.32,-1.98 l -2.08,0 c 0.17,0.64 0.37,1.43 0.76,2.14 0.27,0.49 0.64,1.05 1.09,1.05 l 0.01,0.22 c -1.39,0 -2.92,-2.81 -2.92,-5.1 0,-0.93 0.29,-2.04 1.2,-2.04 l 0,0.22 c -0.33,0 -0.54,0.29 -0.54,1.22 0,0.42 0.06,0.99 0.32,1.97 l 2.07,0 c -0.11,-0.46 -0.32,-1.31 -0.7,-2.02 -0.35,-0.68 -0.72,-1.17 -1.15,-1.17 l 0,-0.22 c 1.4,0 2.91,2.86 2.91,5.09 z"
         id="path4519" /></g>    <path
       sodipodi:nodetypes="cc"
       style="fill:none;fill-rule:evenodd;stroke:#000000;stroke-width:1;stroke-linecap:butt;stroke-linejoin:miter;stroke-miterlimit:4;stroke-dasharray:1, 2;stroke-dashoffset:0;stroke-opacity:1"
       d="m 433.72627,334.66926 0.31241,130.23482"
       id="path4179-3"
       inkscape:connector-curvature="0" />
    <path
       inkscape:connector-curvature="0"
       id="path4579"
       d="M 368.70568,445.76558 432.83206,334.69543"
       style="fill:none;fill-rule:evenodd;stroke:#000000;stroke-width:1;stroke-linecap:butt;stroke-linejoin:miter;stroke-opacity:1;stroke-miterlimit:4;stroke-dasharray:1,3;stroke-dashoffset:0" />
    <path
       inkscape:transform-center-y="-6.5008338"
       inkscape:transform-center-x="-12.930443"
       d="m 254.01056,228.9693 133.36473,8.6998 82.77318,-104.93061 32.93796,129.52578 125.37327,46.29664 -113.00795,71.35153 -5.28825,133.54351 -102.78071,-85.42812 -128.64159,36.23779 49.48598,-124.149 z"
       inkscape:randomized="0"
       inkscape:rounded="0"
       inkscape:flatsided="false"
       sodipodi:arg2="-1.9896753"
       sodipodi:arg1="-2.6179939"
       sodipodi:r2="100.62876"
       sodipodi:r1="201.25752"
       sodipodi:cy="329.59805"
       sodipodi:cx="428.30469"
       sodipodi:sides="5"
       id="path4581"
       style="opacity:1;fill:#cccccc;fill-opacity:0;stroke:#ffffff;stroke-width:1;stroke-miterlimit:4;stroke-dasharray:1, 3;stroke-dashoffset:0;stroke-opacity:0"
       sodipodi:type="star" />
    <path
       inkscape:transform-center-y="-0.33224586"
       inkscape:transform-center-x="6.7635089"
       d="m 854.41506,436.82266 -48.40287,-9.02616 -34.87586,34.75607 -6.37292,-48.8231 -43.83222,-22.42869 44.46418,-21.14819 7.78606,-48.61776 33.85331,35.7528 48.64426,-7.61873 -23.54169,43.24463 z"
       inkscape:randomized="0"
       inkscape:rounded="0"
       inkscape:flatsided="false"
       sodipodi:arg2="1.2711384"
       sodipodi:arg1="0.64281991"
       sodipodi:r2="37.072605"
       sodipodi:r1="74.14521"
       sodipodi:cy="392.37595"
       sodipodi:cx="795.0686"
       sodipodi:sides="5"
       id="path4585"
       style="opacity:1;fill:#5e5e5e;fill-opacity:0;stroke:#424242;stroke-width:1;stroke-miterlimit:4;stroke-dasharray:1, 3;stroke-dashoffset:0;stroke-opacity:0"
       sodipodi:type="star" />
    <text
       transform="matrix(0.70710678,0.70710678,-0.70710678,0.70710678,0,0)"
       sodipodi:linespacing="125%"
       id="text4587"
       y="-62.070145"
       x="535.59393"
       style="font-style:normal;font-weight:normal;font-size:19.03795624px;line-height:125%;font-family:sans-serif;letter-spacing:0px;word-spacing:0px;fill:#000000;fill-opacity:1;stroke:none;stroke-width:1px;stroke-linecap:butt;stroke-linejoin:miter;stroke-opacity:1"
       xml:space="preserve"><tspan
         y="-62.070145"
         x="535.59393"
         id="tspan4589"
         sodipodi:role="line">+</tspan></text>
    <path
       sodipodi:nodetypes="cc"
       inkscape:connector-curvature="0"
       id="path4591"
       d="m 368.70568,371.51937 c 16.71303,-0.17857 31.1836,18.00386 31.1836,18.00386"
       style="fill:none;fill-rule:evenodd;stroke:#000000;stroke-width:1;stroke-linecap:butt;stroke-linejoin:miter;stroke-opacity:1;stroke-miterlimit:4;stroke-dasharray:1,2;stroke-dashoffset:0" />
    <g
       style="font-style:normal;font-variant:normal;font-weight:normal;font-stretch:normal;letter-spacing:normal;word-spacing:normal;text-anchor:start;fill:none;fill-opacity:1;fill-rule:evenodd;stroke:#000000;stroke-linecap:butt;stroke-linejoin:miter;stroke-miterlimit:10.43299961;stroke-dasharray:none;stroke-dashoffset:0;stroke-opacity:1"
       ns0:preamble=""
       ns0:text="$\\varphi$"
       word-spacing="normal"
       letter-spacing="normal"
       font-size-adjust="none"
       font-stretch="normal"
       font-weight="normal"
       font-variant="normal"
       font-style="normal"
       stroke-miterlimit="10.433"
       xml:space="preserve"
       transform="matrix(5,0,0,-5,-737.99999,3900.2857)"
       id="g4663"><path
         id="path4665"
         d="m 225.13,705.43 -0.01,-0.01 0,0 0,-0.01 0,0 0,-0.01 0,0 -0.01,-0.01 0,-0.01 0,-0.01 -0.01,-0.01 0,-0.01 0,-0.01 0,0 -0.01,-0.01 0,-0.01 0,0 0,-0.01 0,-0.01 0,0 -0.01,-0.01 0,0 0,-0.01 0,0 0,0 0,-0.01 0,-0.01 0,0 0,-0.01 0,-0.01 0,-0.01 0,0 c 0,-0.22 0.19,-0.28 0.29,-0.28 0.04,0 0.26,0.03 0.36,0.26 0.03,0.08 0.08,0.41 0.35,1.82 0.09,-0.01 0.16,-0.02 0.33,-0.02 1.66,0 3.19,1.57 3.19,3.14 l -0.28,-0.22 c 0,-1.12 -1.28,-2.34 -2.82,-2.34 l 0,0 c -0.08,0 -0.1,0 -0.18,0.01 -0.12,0 -0.13,0.01 -0.13,0.04 0,0.02 0.17,0.93 0.2,1.08 0.31,1.27 1.09,2.23 1.97,2.23 0.69,0 0.96,-0.54 0.96,-1.02 l 0.28,0.22 c 0,0.78 -0.39,1.38 -1.14,1.38 -1.44,0 -2.04,-1.94 -2.64,-3.88 -1.07,0.2 -1.63,0.76 -1.63,1.47 0,0.28 0.23,1.38 0.83,2.07 0.08,0.09 0.08,0.11 0.08,0.13 0,0.04 -0.02,0.1 -0.12,0.1 -0.28,0 -1.05,-1.45 -1.05,-2.4 0,-0.94 0.66,-1.67 1.72,-1.92 z"
         inkscape:connector-curvature="0"
         style="fill:#000000;stroke-width:0" /></g>  </g>
</svg>
